#!OML:ASF F:\VICON\USERDATA\INSTALL\rory3\rory3.ASF
:FULLY-SPECIFIED
:DEGREES
46
root 0.699451 17.0616 -9.54663 3.93378 0.851988 1.65774
lowerback 15.9045 1.68096 -2.32646
upperback 0.420986 1.77196 -0.330568
thorax -8.54734 0.939506 0.55635
lowerneck -20.9896 -3.8893 -1.92764
upperneck 7.42511 -5.23292 4.36218
head 5.77787 -2.24424 1.13864
rclavicle -2.81777e-014 1.27222e-014
rhumerus -41.6085 13.9554 -102.225
rradius 96.2516
rwrist -9.10877
rhand -22.0151 36.4608
rfingers 7.12502
rthumb 4.39416 6.5264
lclavicle -2.81777e-014 1.27222e-014
lhumerus -41.1714 -15.972 98.3645
lradius 105.906
lwrist 25.0501
lhand -31.9724 2.14296
lfingers 7.12502
lthumb -5.22206 32.0586
rfemur -26.5539 -1.76069 19.3994
rtibia 94.0841
rfoot 0.149257 -6.49805
rtoes 4.88082
lfemur -20.2879 0.316775 -27.0795
ltibia 48.1895
lfoot -25.6467 -0.802505
ltoes -0.435561
47
root 0.70601 17.0532 -9.1198 4.21675 0.600064 1.70357
lowerback 15.455 1.43797 -2.48367
upperback 0.415378 1.44761 -0.193287
thorax -8.29871 0.791686 0.877011
lowerneck -20.9158 -3.77333 -2.16555
upperneck 7.56449 -5.02256 4.36912
head 5.81054 -2.14858 1.20188
rclavicle -1.35919e-014 2.98177e-015
rhumerus -42.8161 14.4941 -102.205
rradius 96.8139
rwrist -9.6626
rhand -21.8947 36.416
rfingers 7.12502
rthumb 4.5104 6.48407
lclavicle -1.35919e-014 2.98177e-015
lhumerus -39.2958 -16.0096 98.1307
lradius 106.481
lwrist 24.293
lhand -29.2551 2.11632
lfingers 7.12502
lthumb -2.5981 32.0802
rfemur -29.239 -2.12229 19.4033
rtibia 94.0665
rfoot -0.993572 -6.36502
rtoes 4.59432
lfemur -18.6964 0.309435 -27.2562
ltibia 47.7858
lfoot -25.9564 0.154514
ltoes -2.73495
48
root 0.716381 17.0698 -8.69001 4.43499 0.79406 1.74783
lowerback 15.2792 1.18224 -2.24952
upperback 0.313349 1.14418 -0.312625
thorax -8.29173 0.634581 0.686503
lowerneck -20.759 -3.77828 -1.85638
upperneck 7.80756 -5.11436 4.28641
head 5.85721 -2.18897 1.11651
rclavicle 8.62228e-015 2.28602e-015
rhumerus -43.9239 14.2992 -102.258
rradius 97.5975
rwrist -10.4683
rhand -21.4232 36.7335
rfingers 7.12502
rthumb 4.96569 6.81166
lclavicle 8.62228e-015 2.28602e-015
lhumerus -37.8742 -16.6535 97.8061
lradius 107.477
lwrist 24.0306
lhand -28.6973 3.61984
lfingers 7.12502
lthumb -2.05937 33.5897
rfemur -31.5592 -2.91923 19.4485
rtibia 93.5033
rfoot -2.15321 -6.08217
rtoes 4.98924
lfemur -17.0234 -0.164292 -27.4422
ltibia 47.1062
lfoot -25.5432 1.26191
ltoes -6.37102
49
root 0.723143 17.1062 -8.25553 4.49022 0.901585 2.10229
lowerback 15.3739 0.959255 -2.44203
upperback 0.136619 0.798208 -0.440832
thorax -8.52725 0.47609 0.732197
lowerneck -20.2953 -3.7098 -1.64159
upperneck 7.8422 -5.08672 4.28315
head 5.78993 -2.17519 1.09027
rclavicle 1.15047e-014 -1.1778e-014
rhumerus -45.2941 14.2934 -102.306
rradius 98.5299
rwrist -11.3801
rhand -21.0395 37.0317
rfingers 7.12502
rthumb 5.3362 7.1189
lclavicle 1.15047e-014 -1.1778e-014
lhumerus -36.9744 -16.9765 97.6464
lradius 108.648
lwrist 24.4052
lhand -28.5898 3.68854
lfingers 7.12502
lthumb -1.95556 33.6593
rfemur -33.5375 -3.57345 19.1673
rtibia 92.4887
rfoot -3.80185 -5.86004
rtoes 3.6357
lfemur -14.9612 -0.542384 -27.9304
ltibia 46.1998
lfoot -24.9585 1.80883
ltoes -9.50574
